<svg width="338" height="100" viewBox="0 0 338 100" fill="none" xmlns="http://www.w3.org/2000/svg">
<mask id="path-1-outside-1_19_242" maskUnits="userSpaceOnUse" x="-2" y="-1" width="341" height="102" fill="black">
<rect fill="white" x="-2" y="-1" width="341" height="102"/>
<path d="M43.2383 6.41797H62.9258L107.223 98H87.7109L80.3867 82.5898H26.8906L19.8008 98H0.230469L43.2383 6.41797ZM73.0625 67.2969L53.2578 25.6953L33.9805 67.2969H73.0625ZM119.352 0.792969H136.695V58.2148L169.039 28.8594H195.582L159.43 61.2031L197.867 98H171.852L146.129 73.0977L136.695 81.5352V98H119.352V0.792969ZM208.824 0.792969H226.168V35.3633C227.691 34.3086 229.488 33.3125 231.559 32.375C233.629 31.4375 235.855 30.6172 238.238 29.9141C240.621 29.2109 243.082 28.6641 245.621 28.2734C248.16 27.8438 250.699 27.6289 253.238 27.6289C259.098 27.6289 264.469 28.4883 269.352 30.207C274.273 31.9258 278.492 34.3477 282.008 37.4727C285.523 40.5977 288.258 44.3477 290.211 48.7227C292.203 53.0586 293.199 57.8633 293.199 63.1367C293.199 68.6445 292.164 73.625 290.094 78.0781C288.023 82.4922 285.152 86.2812 281.48 89.4453C277.848 92.5703 273.512 94.9922 268.473 96.7109C263.473 98.3906 258.043 99.2305 252.184 99.2305C249.684 99.2305 247.203 99.0742 244.742 98.7617C242.32 98.4492 239.977 98.0195 237.711 97.4727C235.484 96.9258 233.375 96.2812 231.383 95.5391C229.43 94.7578 227.691 93.918 226.168 93.0195V98H208.824V0.792969ZM226.168 76.2617C227.926 77.668 229.781 78.8594 231.734 79.8359C233.688 80.8125 235.68 81.6133 237.711 82.2383C239.742 82.8633 241.793 83.332 243.863 83.6445C245.934 83.918 247.945 84.0547 249.898 84.0547C253.883 84.0547 257.418 83.5273 260.504 82.4727C263.629 81.3789 266.246 79.8945 268.355 78.0195C270.504 76.1445 272.145 73.9375 273.277 71.3984C274.41 68.8594 274.977 66.1055 274.977 63.1367C274.977 60.3633 274.41 57.7461 273.277 55.2852C272.184 52.8242 270.582 50.6758 268.473 48.8398C266.402 46.9648 263.883 45.5 260.914 44.4453C257.984 43.3516 254.684 42.8047 251.012 42.8047C248.668 42.8047 246.324 43.0391 243.98 43.5078C241.637 43.9375 239.371 44.5625 237.184 45.3828C235.035 46.2031 233.004 47.1992 231.09 48.3711C229.215 49.543 227.574 50.8516 226.168 52.2969V76.2617ZM309.605 87.8633C309.605 86.3008 309.918 84.8359 310.543 83.4688C311.207 82.0625 312.145 80.8516 313.355 79.8359C314.566 78.7812 316.031 77.9609 317.75 77.375C319.469 76.7891 321.402 76.4961 323.551 76.4961C325.699 76.4961 327.633 76.7891 329.352 77.375C331.07 77.9609 332.516 78.7812 333.688 79.8359C334.898 80.8516 335.816 82.0625 336.441 83.4688C337.105 84.8359 337.438 86.3008 337.438 87.8633C337.438 89.4258 337.105 90.9102 336.441 92.3164C335.816 93.6836 334.898 94.875 333.688 95.8906C332.516 96.9062 331.07 97.707 329.352 98.293C327.633 98.918 325.699 99.2305 323.551 99.2305C321.402 99.2305 319.469 98.918 317.75 98.293C316.031 97.707 314.566 96.9062 313.355 95.8906C312.145 94.875 311.207 93.6836 310.543 92.3164C309.918 90.9102 309.605 89.4258 309.605 87.8633Z"/>
</mask>
<path d="M43.2383 6.41797H62.9258L107.223 98H87.7109L80.3867 82.5898H26.8906L19.8008 98H0.230469L43.2383 6.41797ZM73.0625 67.2969L53.2578 25.6953L33.9805 67.2969H73.0625ZM119.352 0.792969H136.695V58.2148L169.039 28.8594H195.582L159.43 61.2031L197.867 98H171.852L146.129 73.0977L136.695 81.5352V98H119.352V0.792969ZM208.824 0.792969H226.168V35.3633C227.691 34.3086 229.488 33.3125 231.559 32.375C233.629 31.4375 235.855 30.6172 238.238 29.9141C240.621 29.2109 243.082 28.6641 245.621 28.2734C248.16 27.8438 250.699 27.6289 253.238 27.6289C259.098 27.6289 264.469 28.4883 269.352 30.207C274.273 31.9258 278.492 34.3477 282.008 37.4727C285.523 40.5977 288.258 44.3477 290.211 48.7227C292.203 53.0586 293.199 57.8633 293.199 63.1367C293.199 68.6445 292.164 73.625 290.094 78.0781C288.023 82.4922 285.152 86.2812 281.48 89.4453C277.848 92.5703 273.512 94.9922 268.473 96.7109C263.473 98.3906 258.043 99.2305 252.184 99.2305C249.684 99.2305 247.203 99.0742 244.742 98.7617C242.32 98.4492 239.977 98.0195 237.711 97.4727C235.484 96.9258 233.375 96.2812 231.383 95.5391C229.43 94.7578 227.691 93.918 226.168 93.0195V98H208.824V0.792969ZM226.168 76.2617C227.926 77.668 229.781 78.8594 231.734 79.8359C233.688 80.8125 235.68 81.6133 237.711 82.2383C239.742 82.8633 241.793 83.332 243.863 83.6445C245.934 83.918 247.945 84.0547 249.898 84.0547C253.883 84.0547 257.418 83.5273 260.504 82.4727C263.629 81.3789 266.246 79.8945 268.355 78.0195C270.504 76.1445 272.145 73.9375 273.277 71.3984C274.41 68.8594 274.977 66.1055 274.977 63.1367C274.977 60.3633 274.41 57.7461 273.277 55.2852C272.184 52.8242 270.582 50.6758 268.473 48.8398C266.402 46.9648 263.883 45.5 260.914 44.4453C257.984 43.3516 254.684 42.8047 251.012 42.8047C248.668 42.8047 246.324 43.0391 243.98 43.5078C241.637 43.9375 239.371 44.5625 237.184 45.3828C235.035 46.2031 233.004 47.1992 231.09 48.3711C229.215 49.543 227.574 50.8516 226.168 52.2969V76.2617ZM309.605 87.8633C309.605 86.3008 309.918 84.8359 310.543 83.4688C311.207 82.0625 312.145 80.8516 313.355 79.8359C314.566 78.7812 316.031 77.9609 317.75 77.375C319.469 76.7891 321.402 76.4961 323.551 76.4961C325.699 76.4961 327.633 76.7891 329.352 77.375C331.07 77.9609 332.516 78.7812 333.688 79.8359C334.898 80.8516 335.816 82.0625 336.441 83.4688C337.105 84.8359 337.438 86.3008 337.438 87.8633C337.438 89.4258 337.105 90.9102 336.441 92.3164C335.816 93.6836 334.898 94.875 333.688 95.8906C332.516 96.9062 331.07 97.707 329.352 98.293C327.633 98.918 325.699 99.2305 323.551 99.2305C321.402 99.2305 319.469 98.918 317.75 98.293C316.031 97.707 314.566 96.9062 313.355 95.8906C312.145 94.875 311.207 93.6836 310.543 92.3164C309.918 90.9102 309.605 89.4258 309.605 87.8633Z" fill="#6472F4"/>
<path d="M43.2383 6.41797V5.41797H42.6031L42.3331 5.9929L43.2383 6.41797ZM62.9258 6.41797L63.826 5.98254L63.5529 5.41797H62.9258V6.41797ZM107.223 98V99H108.817L108.123 97.5646L107.223 98ZM87.7109 98L86.8078 98.4293L87.079 99H87.7109V98ZM80.3867 82.5898L81.2899 82.1606L81.0186 81.5898H80.3867V82.5898ZM26.8906 82.5898V81.5898H26.2499L25.9822 82.1719L26.8906 82.5898ZM19.8008 98V99H20.4415L20.7092 98.418L19.8008 98ZM0.230469 98L-0.674691 97.5749L-1.34392 99H0.230469V98ZM73.0625 67.2969V68.2969H74.6461L73.9654 66.867L73.0625 67.2969ZM53.2578 25.6953L54.1607 25.2655L53.2456 23.3432L52.3505 25.2749L53.2578 25.6953ZM33.9805 67.2969L33.0731 66.8764L32.4149 68.2969H33.9805V67.2969ZM43.2383 7.41797H62.9258V5.41797H43.2383V7.41797ZM62.0256 6.85339L106.322 98.4354L108.123 97.5646L63.826 5.98254L62.0256 6.85339ZM107.223 97H87.7109V99H107.223V97ZM88.6141 97.5707L81.2899 82.1606L79.4835 83.0191L86.8078 98.4293L88.6141 97.5707ZM80.3867 81.5898H26.8906V83.5898H80.3867V81.5898ZM25.9822 82.1719L18.8923 97.582L20.7092 98.418L27.7991 83.0078L25.9822 82.1719ZM19.8008 97H0.230469V99H19.8008V97ZM1.13563 98.4251L44.1434 6.84304L42.3331 5.9929L-0.674691 97.5749L1.13563 98.4251ZM73.9654 66.867L54.1607 25.2655L52.3549 26.1251L72.1596 67.7267L73.9654 66.867ZM52.3505 25.2749L33.0731 66.8764L34.8878 67.7173L54.1651 26.1157L52.3505 25.2749ZM33.9805 68.2969H73.0625V66.2969H33.9805V68.2969ZM119.352 0.792969V-0.207031H118.352V0.792969H119.352ZM136.695 0.792969H137.695V-0.207031H136.695V0.792969ZM136.695 58.2148H135.695V60.4729L137.367 58.9553L136.695 58.2148ZM169.039 28.8594V27.8594H168.653L168.367 28.1189L169.039 28.8594ZM195.582 28.8594L196.249 29.6046L198.2 27.8594H195.582V28.8594ZM159.43 61.2031L158.763 60.4579L157.958 61.1783L158.738 61.9255L159.43 61.2031ZM197.867 98V99H200.358L198.559 97.2776L197.867 98ZM171.852 98L171.156 98.7185L171.447 99H171.852V98ZM146.129 73.0977L146.824 72.3792L146.156 71.7319L145.462 72.3523L146.129 73.0977ZM136.695 81.5352L136.029 80.7898L135.695 81.0879V81.5352H136.695ZM136.695 98V99H137.695V98H136.695ZM119.352 98H118.352V99H119.352V98ZM119.352 1.79297H136.695V-0.207031H119.352V1.79297ZM135.695 0.792969V58.2148H137.695V0.792969H135.695ZM137.367 58.9553L169.711 29.5999L168.367 28.1189L136.023 57.4744L137.367 58.9553ZM169.039 29.8594H195.582V27.8594H169.039V29.8594ZM194.915 28.1141L158.763 60.4579L160.096 61.9484L196.249 29.6046L194.915 28.1141ZM158.738 61.9255L197.176 98.7224L198.559 97.2776L160.121 60.4808L158.738 61.9255ZM197.867 97H171.852V99H197.867V97ZM172.547 97.2815L146.824 72.3792L145.433 73.8161L171.156 98.7185L172.547 97.2815ZM145.462 72.3523L136.029 80.7898L137.362 82.2805L146.796 73.843L145.462 72.3523ZM135.695 81.5352V98H137.695V81.5352H135.695ZM136.695 97H119.352V99H136.695V97ZM120.352 98V0.792969H118.352V98H120.352ZM208.824 0.792969V-0.207031H207.824V0.792969H208.824ZM226.168 0.792969H227.168V-0.207031H226.168V0.792969ZM226.168 35.3633H225.168V37.2718L226.737 36.1855L226.168 35.3633ZM245.621 28.2734L245.773 29.2618L245.781 29.2607L245.788 29.2594L245.621 28.2734ZM269.352 30.207L269.02 31.1503L269.022 31.1511L269.352 30.207ZM282.008 37.4727L282.672 36.7252L282.008 37.4727ZM290.211 48.7227L289.298 49.1303L289.302 49.1402L290.211 48.7227ZM290.094 78.0781L290.999 78.5028L291.001 78.4997L290.094 78.0781ZM281.48 89.4453L282.133 90.2034L282.133 90.2029L281.48 89.4453ZM268.473 96.7109L268.791 97.6589L268.795 97.6574L268.473 96.7109ZM244.742 98.7617L244.614 99.7535L244.616 99.7538L244.742 98.7617ZM237.711 97.4727L237.472 98.4438L237.476 98.4447L237.711 97.4727ZM231.383 95.5391L231.011 96.4675L231.023 96.472L231.034 96.4761L231.383 95.5391ZM226.168 93.0195L226.676 92.1582L225.168 91.2688V93.0195H226.168ZM226.168 98V99H227.168V98H226.168ZM208.824 98H207.824V99H208.824V98ZM226.168 76.2617H225.168V76.7423L225.543 77.0426L226.168 76.2617ZM231.734 79.8359L232.182 78.9415L231.734 79.8359ZM237.711 82.2383L238.005 81.2825L237.711 82.2383ZM243.863 83.6445L243.714 84.6333L243.723 84.6347L243.732 84.6359L243.863 83.6445ZM260.504 82.4727L260.827 83.4189L260.834 83.4165L260.504 82.4727ZM268.355 78.0195L267.698 77.2661L267.691 77.2721L268.355 78.0195ZM273.277 55.2852L272.363 55.6913L272.369 55.7033L273.277 55.2852ZM268.473 48.8398L267.801 49.581L267.809 49.5877L267.816 49.5941L268.473 48.8398ZM260.914 44.4453L260.564 45.3822L260.572 45.3849L260.579 45.3876L260.914 44.4453ZM243.98 43.5078L244.161 44.4914L244.169 44.49L244.177 44.4884L243.98 43.5078ZM237.184 45.3828L236.832 44.4465L236.827 44.4486L237.184 45.3828ZM231.09 48.3711L230.568 47.5182L230.56 47.5231L231.09 48.3711ZM226.168 52.2969L225.451 51.5995L225.168 51.8907V52.2969H226.168ZM208.824 1.79297H226.168V-0.207031H208.824V1.79297ZM225.168 0.792969V35.3633H227.168V0.792969H225.168ZM226.737 36.1855C228.202 35.1717 229.944 34.204 231.971 33.286L231.146 31.464C229.033 32.421 227.181 33.4455 225.599 34.5411L226.737 36.1855ZM231.971 33.286C233.996 32.3691 236.179 31.5644 238.521 30.8732L237.955 28.9549C235.532 29.6699 233.262 30.5059 231.146 31.464L231.971 33.286ZM238.521 30.8732C240.86 30.1831 243.277 29.6459 245.773 29.2618L245.469 27.2851C242.887 27.6823 240.382 28.2387 237.955 28.9549L238.521 30.8732ZM245.788 29.2594C248.273 28.8389 250.756 28.6289 253.238 28.6289V26.6289C250.643 26.6289 248.048 26.8486 245.454 27.2875L245.788 29.2594ZM253.238 28.6289C258.999 28.6289 264.256 29.4737 269.02 31.1503L269.684 29.2638C264.681 27.5029 259.196 26.6289 253.238 26.6289V28.6289ZM269.022 31.1511C273.834 32.8315 277.936 35.1908 281.343 38.2201L282.672 36.7252C279.049 33.5045 274.713 31.0201 269.681 29.2629L269.022 31.1511ZM281.343 38.2201C284.751 41.249 287.401 44.8825 289.298 49.1303L291.124 48.315C289.114 43.8129 286.296 39.9463 282.672 36.7252L281.343 38.2201ZM289.302 49.1402C291.228 53.3319 292.199 57.9921 292.199 63.1367H294.199C294.199 57.7344 293.178 52.7853 291.12 48.3052L289.302 49.1402ZM292.199 63.1367C292.199 68.5167 291.189 73.3507 289.187 77.6565L291.001 78.4997C293.139 73.8993 294.199 68.7724 294.199 63.1367H292.199ZM289.188 77.6535C287.178 81.9408 284.392 85.6162 280.828 88.6878L282.133 90.2029C285.912 86.9463 288.869 83.0436 290.999 78.5028L289.188 77.6535ZM280.828 88.6872C277.302 91.7202 273.082 94.0824 268.15 95.7645L268.795 97.6574C273.942 95.902 278.393 93.4204 282.133 90.2034L280.828 88.6872ZM268.154 95.763C263.268 97.4046 257.947 98.2305 252.184 98.2305V100.23C258.139 100.23 263.678 99.3766 268.791 97.6589L268.154 95.763ZM252.184 98.2305C249.725 98.2305 247.287 98.0768 244.868 97.7697L244.616 99.7538C247.119 100.072 249.642 100.23 252.184 100.23V98.2305ZM244.87 97.7699C242.482 97.4619 240.174 97.0386 237.946 96.5006L237.476 98.4447C239.779 99.0005 242.158 99.4366 244.614 99.7535L244.87 97.7699ZM237.949 96.5015C235.757 95.9631 233.685 95.3297 231.732 94.602L231.034 96.4761C233.065 97.2328 235.211 97.8884 237.472 98.4438L237.949 96.5015ZM231.754 94.6106C229.84 93.8448 228.148 93.0265 226.676 92.1582L225.66 93.8809C227.234 94.8094 229.02 95.6708 231.011 96.4675L231.754 94.6106ZM225.168 93.0195V98H227.168V93.0195H225.168ZM226.168 97H208.824V99H226.168V97ZM209.824 98V0.792969H207.824V98H209.824ZM225.543 77.0426C227.354 78.4915 229.269 79.7213 231.287 80.7304L232.182 78.9415C230.293 77.9974 228.497 76.8445 226.793 75.4808L225.543 77.0426ZM231.287 80.7304C233.288 81.7309 235.332 82.5524 237.417 83.1941L238.005 81.2825C236.028 80.6741 234.087 79.8941 232.182 78.9415L231.287 80.7304ZM237.417 83.1941C239.495 83.8334 241.594 84.3133 243.714 84.6333L244.013 82.6557C241.992 82.3507 239.99 81.8931 238.005 81.2825L237.417 83.1941ZM243.732 84.6359C245.843 84.9147 247.899 85.0547 249.898 85.0547V83.0547C247.992 83.0547 246.024 82.9212 243.994 82.6531L243.732 84.6359ZM249.898 85.0547C253.969 85.0547 257.617 84.5161 260.827 83.4189L260.181 81.5264C257.219 82.5386 253.796 83.0547 249.898 83.0547V85.0547ZM260.834 83.4165C264.061 82.287 266.798 80.7422 269.02 78.7669L267.691 77.2721C265.695 79.0468 263.196 80.4708 260.174 81.5288L260.834 83.4165ZM269.013 78.773C271.268 76.8051 272.997 74.4809 274.191 71.8059L272.364 70.991C271.292 73.3941 269.74 75.484 267.698 77.2661L269.013 78.773ZM274.191 71.8059C275.384 69.1301 275.977 66.2362 275.977 63.1367H273.977C273.977 65.9747 273.436 68.5887 272.364 70.991L274.191 71.8059ZM275.977 63.1367C275.977 60.2224 275.38 57.4623 274.186 54.867L272.369 55.7033C273.44 58.0299 273.977 60.5041 273.977 63.1367H275.977ZM274.191 54.879C273.036 52.2795 271.344 50.0136 269.129 48.0855L267.816 49.5941C269.82 51.338 271.331 53.369 272.364 55.6913L274.191 54.879ZM269.144 48.0986C266.964 46.1244 264.326 44.5962 261.249 43.503L260.579 45.3876C263.44 46.4038 265.841 47.8053 267.801 49.581L269.144 48.0986ZM261.264 43.5085C258.205 42.3664 254.783 41.8047 251.012 41.8047V43.8047C254.585 43.8047 257.764 44.3368 260.564 45.3822L261.264 43.5085ZM251.012 41.8047C248.601 41.8047 246.191 42.0458 243.784 42.5272L244.177 44.4884C246.457 44.0323 248.735 43.8047 251.012 43.8047V41.8047ZM243.8 42.5242C241.399 42.9644 239.076 43.605 236.832 44.4465L237.535 46.3191C239.666 45.52 241.874 44.9106 244.161 44.4914L243.8 42.5242ZM236.827 44.4486C234.622 45.2903 232.536 46.3134 230.568 47.5182L231.612 49.2239C233.472 48.085 235.448 47.1159 237.54 46.317L236.827 44.4486ZM230.56 47.5231C228.623 48.7335 226.919 50.0915 225.451 51.5995L226.885 52.9942C228.23 51.6117 229.806 50.3525 231.62 49.2191L230.56 47.5231ZM225.168 52.2969V76.2617H227.168V52.2969H225.168ZM310.543 83.4688L309.639 83.0417L309.633 83.053L310.543 83.4688ZM313.355 79.8359L313.998 80.6021L314.005 80.5961L314.012 80.59L313.355 79.8359ZM333.688 79.8359L333.019 80.5792L333.032 80.5909L333.045 80.6021L333.688 79.8359ZM336.441 83.4688L335.528 83.8749L335.534 83.8904L335.542 83.9057L336.441 83.4688ZM336.441 92.3164L335.537 91.8894L335.532 91.9006L336.441 92.3164ZM333.688 95.8906L333.045 95.1244L333.039 95.1296L333.033 95.1349L333.688 95.8906ZM329.352 98.293L329.029 97.3465L329.019 97.3497L329.01 97.3532L329.352 98.293ZM317.75 98.293L318.092 97.3532L318.082 97.3497L318.073 97.3465L317.75 98.293ZM310.543 92.3164L309.629 92.7225L309.636 92.738L309.643 92.7533L310.543 92.3164ZM310.605 87.8633C310.605 86.4385 310.889 85.116 311.452 83.8845L309.633 83.053C308.946 84.5558 308.605 86.1631 308.605 87.8633H310.605ZM311.447 83.8958C312.049 82.6223 312.896 81.5265 313.998 80.6021L312.713 79.0697C311.393 80.1766 310.365 81.5027 309.639 83.0417L311.447 83.8958ZM314.012 80.59C315.113 79.631 316.461 78.871 318.073 78.3215L317.427 76.4285C315.602 77.0508 314.019 77.9315 312.699 79.0819L314.012 80.59ZM318.073 78.3215C319.67 77.7768 321.493 77.4961 323.551 77.4961V75.4961C321.312 75.4961 319.267 75.8013 317.427 76.4285L318.073 78.3215ZM323.551 77.4961C325.609 77.4961 327.431 77.7768 329.029 78.3215L329.674 76.4285C327.835 75.8013 325.789 75.4961 323.551 75.4961V77.4961ZM329.029 78.3215C330.639 78.8704 331.961 79.6277 333.019 80.5792L334.356 79.0926C333.07 77.9348 331.502 77.0515 329.674 76.4285L329.029 78.3215ZM333.045 80.6021C334.142 81.5227 334.966 82.6116 335.528 83.8749L337.355 83.0626C336.667 81.5134 335.654 80.1805 334.33 79.0697L333.045 80.6021ZM335.542 83.9057C336.138 85.1328 336.438 86.4478 336.438 87.8633H338.438C338.438 86.1538 338.073 84.5391 337.341 83.0318L335.542 83.9057ZM336.438 87.8633C336.438 89.2788 336.138 90.6173 335.537 91.8894L337.346 92.7434C338.073 91.203 338.438 89.5727 338.438 87.8633H336.438ZM335.532 91.9006C334.972 93.1257 334.148 94.1993 333.045 95.1244L334.33 96.6568C335.649 95.5507 336.661 94.2415 337.351 92.7322L335.532 91.9006ZM333.033 95.1349C331.973 96.053 330.646 96.7951 329.029 97.3465L329.674 99.2395C331.494 98.6189 333.058 97.7595 334.342 96.6463L333.033 95.1349ZM329.01 97.3532C327.418 97.9321 325.603 98.2305 323.551 98.2305V100.23C325.796 100.23 327.848 99.9039 329.693 99.2328L329.01 97.3532ZM323.551 98.2305C321.499 98.2305 319.684 97.9321 318.092 97.3532L317.408 99.2328C319.254 99.9039 321.306 100.23 323.551 100.23V98.2305ZM318.073 97.3465C316.454 96.7945 315.101 96.0498 313.998 95.1244L312.713 96.6568C314.031 97.7627 315.609 98.6196 317.427 99.2395L318.073 97.3465ZM313.998 95.1244C312.891 94.1956 312.043 93.115 311.442 91.8795L309.643 92.7533C310.371 94.2522 311.398 95.5544 312.713 96.6568L313.998 95.1244ZM311.457 91.9103C310.889 90.6339 310.605 89.2881 310.605 87.8633H308.605C308.605 89.5635 308.946 91.1864 309.629 92.7225L311.457 91.9103Z" fill="#F11414" mask="url(#path-1-outside-1_19_242)"/>
</svg>
